<svg width="680" height="385" viewBox="0 0 680 385" fill="none" xmlns="http://www.w3.org/2000/svg">
<path d="M357.79 24.86C298.307 66.7361 270.35 131.137 263.806 158.102C264.6 160.085 267.375 162.861 272.134 158.102C276.893 147.633 309.014 116.067 324.479 101.593C319.919 103.576 306.515 111.943 289.384 129.55C290.574 110.516 329.833 55.1964 357.79 24.86Z" fill="#FFDA54" stroke="#FFDA54"/>
<path d="M350.057 56.386C322.933 72.0896 324.479 89.8949 328.643 96.8346C345.774 90.6484 348.074 76.0155 347.083 69.4723C346.488 66.8947 346.25 60.6688 350.057 56.386Z" fill="#FFDA54" stroke="#FFDA54"/>
<path d="M330.428 102.188C335.385 95.6449 350.414 86.8414 370.876 103.973C359.574 114.085 336.376 113.49 330.428 102.188Z" fill="#FFDA54" stroke="#FFDA54"/>
<path d="M372.661 46.8687C349.819 59.2412 348.867 76.2138 351.247 83.1535C369.092 80.1793 375.04 58.1705 374.445 48.6532C379.204 44.8463 394.669 31.9979 401.807 26.0496C395.859 29.4203 381.702 38.3032 372.661 46.8687Z" fill="#FFDA54" stroke="#FFDA54"/>
<path d="M392.885 88.5069C370.995 74.231 358.385 82.5586 354.816 88.5069C360.764 98.0243 380.988 98.6191 390.506 92.6708C410.968 92.1949 421.635 87.3173 424.411 84.938C415.489 86.7225 396.692 89.9345 392.885 88.5069Z" fill="#FFDA54" stroke="#FFDA54"/>
<path d="M402.402 37.3514C376.23 48.7722 374.842 63.1275 377.419 68.8775C390.506 68.8775 400.618 53.4119 400.618 40.9204C405.376 37.5894 430.756 26.0496 442.851 20.6961C439.083 21.6875 425.72 26.4065 402.402 37.3514Z" fill="#FFDA54" stroke="#FFDA54"/>
<path d="M413.109 76.6103C400.261 63.2861 385.152 69.8689 379.204 74.8258C385.747 84.938 399.428 85.5328 413.109 80.7741C434.523 79.3465 447.411 74.231 451.178 71.8517C443.049 73.6362 424.054 77.0862 413.109 76.6103Z" fill="#FFDA54" stroke="#FFDA54"/>
<path d="M401.807 59.955C400.618 53.2136 404.663 38.4221 430.359 33.1876C428.932 46.5118 415.489 59.955 401.807 59.955Z" fill="#FFDA54" stroke="#FFDA54"/>
<path d="M436.308 65.3085C421.556 53.4119 409.144 60.3516 404.782 65.3085C407.756 70.662 420.842 77.2052 436.308 68.2827C466.763 64.4758 475.963 57.9723 476.756 55.1964C467.239 58.5671 445.825 65.3085 436.308 65.3085Z" fill="#FFDA54" stroke="#FFDA54"/>
<path d="M457.722 43.8946C436.308 38.6601 427.385 48.8515 425.601 54.6015C436.308 59.955 449.394 58.7654 459.506 46.2739C484.727 43.1057 493.015 38.609 494.006 36.7566C487.86 37.9463 471.998 41.0394 457.722 43.8946Z" fill="#FFDA54" stroke="#FFDA54"/>
<path d="M433.333 34.9721C441.463 31.6014 460.339 25.2168 470.808 26.6444C467.953 29.4996 444.635 33.3859 433.333 34.9721Z" fill="#FFDA54" stroke="#FFDA54"/>
<path d="M149.004 117.059C157.133 114.481 175.533 109.802 184.099 111.705C185.051 114.561 161.099 116.464 149.004 117.059Z" fill="#FADA6B" stroke="#FADA6B"/>
<path d="M169.228 51.4987C176.127 56.5122 190.813 68.545 194.364 76.5688C192.631 79.0292 176.885 60.8806 169.228 51.4987Z" fill="#FADA6B" stroke="#FADA6B"/>
<path d="M232.801 19.5065C234.699 27.8209 237.843 46.5446 235.239 54.9237C232.315 55.6365 232.395 31.6092 232.801 19.5065Z" fill="#FADA6B" stroke="#FADA6B"/>
<path d="M297.337 39.7308C292.74 46.9141 281.597 62.2855 273.797 66.3049C271.238 64.7201 288.424 47.9285 297.337 39.7308Z" fill="#FADA6B" stroke="#FADA6B"/>
<path d="M234.065 71.8517C253.603 71.8519 269.53 87.2934 270.316 106.638L270.348 106.81C270.819 109.678 270.497 113.471 269.764 117.602C268.978 122.023 267.709 126.894 266.369 131.547C265.03 136.197 263.613 140.654 262.538 144.221C261.999 146.009 261.547 147.573 261.229 148.836C260.908 150.115 260.738 151.034 260.738 151.559V152.204L260.112 152.043C257.251 151.303 253.373 150.488 249.027 149.566C244.688 148.647 239.891 147.623 235.21 146.468C230.53 145.314 225.955 144.025 222.059 142.575C218.178 141.13 214.915 139.504 212.907 137.65L212.724 137.482C203.668 130.884 197.78 120.199 197.78 108.137C197.78 88.0973 214.026 71.8517 234.065 71.8517Z" fill="#FADA6B"/>
<g filter="url(#filter0_f_3_71)">
<circle cx="237.039" cy="109.921" r="32.1209" fill="#FADA6B"/>
</g>
<path d="M282.841 164.645C156.261 115.631 42.1325 164.176 0.296021 194.909C42.9264 186.946 67.7963 192.411 120.9 209.296C142.795 216.258 163.907 225.447 184.873 234.843C228.155 254.239 291.131 277.902 335.186 284.801C405.863 295.87 498.765 250.824 539.214 213.944C509.472 221.082 441.066 225.913 282.841 164.645Z" fill="#86C137" stroke="#86C137"/>
<path d="M280.462 181.301C153.882 132.287 42.1325 164.176 0.296021 194.909C42.9264 186.946 67.7963 192.411 120.9 209.296C142.795 216.258 163.907 225.447 184.873 234.843C228.155 254.239 291.131 277.902 335.186 284.801C405.863 295.87 498.765 250.823 539.214 213.944C509.472 221.082 438.687 242.568 280.462 181.301Z" fill="#529C38" stroke="#529C38"/>
<path d="M281.057 194.909C154.476 145.895 42.1325 164.176 0.296021 194.909C42.9264 186.946 67.7963 192.411 120.9 209.296C142.795 216.258 163.907 225.447 184.873 234.843C228.155 254.239 291.131 277.902 335.186 284.801C405.863 295.87 498.765 250.823 539.214 213.944C481.515 245.543 439.282 256.177 281.057 194.909Z" fill="#267633" stroke="#267633"/>
<path d="M278.677 206.284C152.097 157.269 42.1325 164.176 0.296021 194.909C42.9264 186.946 67.7963 192.411 120.9 209.296C142.795 216.258 163.907 225.447 184.873 234.843C228.155 254.239 291.131 277.902 335.186 284.801C405.863 295.87 498.765 250.823 539.214 213.944C487.463 255.655 436.902 267.551 278.677 206.284Z" fill="#358634" stroke="#358635"/>
<path d="M276.893 228.292C118.668 171.783 42.1325 164.176 0.296021 194.909C42.9264 186.946 67.7963 192.411 120.9 209.296C142.795 216.258 163.907 225.447 184.873 234.843C228.155 254.239 291.131 277.902 335.186 284.801C405.863 295.87 498.765 250.823 539.214 213.944C487.463 255.655 436.681 285.36 276.893 228.292Z" fill="#0E622C" stroke="#0E622D"/>
<path d="M272.729 248.517C114.504 192.008 42.1325 164.176 0.296021 194.909C42.9264 186.946 67.7963 192.411 120.9 209.296C142.795 216.258 163.907 225.447 184.873 234.843C228.155 254.239 291.131 277.902 335.186 284.801C405.863 295.87 498.765 250.823 539.214 213.944C482.11 248.517 432.517 305.584 272.729 248.517Z" fill="#064620" stroke="#064620"/>
<path d="M678.404 92.0759C443.327 80.6552 309.212 126.576 271.539 150.964C278.082 154.533 298.902 164.051 329.833 173.568C417.273 139.068 598.102 138.473 628.438 145.611C651.637 124.792 669.482 103.973 678.404 92.0759Z" fill="#B9EB1C" stroke="#B9EB1C"/>
<path d="M664.128 108.731C435.118 100.404 321.505 135.499 281.651 155.723C288.195 159.292 298.902 164.05 329.833 173.568C417.273 139.067 598.102 138.473 628.438 145.611C651.637 124.792 655.206 120.628 664.128 108.731Z" fill="#82BA30" stroke="#82BA30"/>
<path d="M650.447 124.792C451.773 118.843 338.755 142.042 298.902 162.266C305.445 165.835 298.902 164.05 329.833 173.568C417.273 139.068 598.102 138.473 628.438 145.611C634.981 139.662 637.956 137.283 650.447 124.792Z" fill="#479031" stroke="#479031"/>
<path d="M621.3 152.154C494.244 141.209 383.169 163.852 343.514 176.542C434.523 214.016 504.713 215.206 538.024 207.473C571.334 199.74 605.24 171.783 621.3 152.154Z" fill="#70AD35" stroke="#70AD35"/>
<path d="M608.214 165.835C503.524 157.507 408.747 173.964 369.092 186.654C460.101 224.129 504.713 215.206 538.024 207.473C571.334 199.741 587.395 182.49 608.214 165.835Z" fill="#469135" stroke="#469135"/>
<path d="M586.205 183.68C486.273 180.706 435.515 184.077 395.859 196.766C455.937 220.56 504.413 213.776 538.024 207.473C557.058 203.904 573.714 193.197 586.205 183.68Z" fill="#277333" stroke="#277333"/>
<path d="M62.096 335.306C65.3494 336.426 67.8827 338.186 69.696 340.586C71.5627 342.933 72.496 345.68 72.496 348.826C72.496 352.24 71.376 355.2 69.136 357.706C66.896 360.213 63.856 362.133 60.016 363.466C56.2294 364.8 52.0694 365.466 47.536 365.466C43.696 365.466 39.856 364.986 36.016 364.026C32.2294 363.066 28.6294 361.6 25.216 359.626L29.216 350.346C31.6694 351.84 34.3627 352.986 37.296 353.786C40.2827 354.533 43.1894 354.906 46.016 354.906C49.856 354.906 53.0294 354.213 55.536 352.826C58.096 351.44 59.376 349.493 59.376 346.986C59.376 344.906 58.496 343.333 56.736 342.266C55.0294 341.2 52.6827 340.666 49.696 340.666H36.016V330.906H48.736C51.3494 330.906 53.376 330.373 54.816 329.306C56.3094 328.24 57.056 326.773 57.056 324.906C57.056 322.72 55.9894 321.013 53.856 319.786C51.776 318.56 49.0827 317.946 45.776 317.946C43.3227 317.946 40.7894 318.293 38.176 318.986C35.5627 319.626 33.0827 320.613 30.736 321.946L26.816 311.866C32.736 308.826 39.136 307.306 46.016 307.306C50.3894 307.306 54.416 307.946 58.096 309.226C61.776 310.506 64.7094 312.373 66.896 314.826C69.0827 317.28 70.176 320.133 70.176 323.386C70.176 326.053 69.456 328.426 68.016 330.506C66.576 332.586 64.6027 334.186 62.096 335.306ZM123.636 343.146C123.636 343.306 123.556 344.426 123.396 346.506H90.836C91.4227 349.173 92.8094 351.28 94.996 352.826C97.1827 354.373 99.9027 355.146 103.156 355.146C105.396 355.146 107.369 354.826 109.076 354.186C110.836 353.493 112.463 352.426 113.956 350.986L120.596 358.186C116.543 362.826 110.623 365.146 102.836 365.146C97.9827 365.146 93.6894 364.213 89.956 362.346C86.2227 360.426 83.3427 357.786 81.316 354.426C79.2894 351.066 78.276 347.253 78.276 342.986C78.276 338.773 79.2627 334.986 81.236 331.626C83.2627 328.213 86.0094 325.573 89.476 323.706C92.996 321.786 96.916 320.826 101.236 320.826C105.449 320.826 109.263 321.733 112.676 323.546C116.089 325.36 118.756 327.973 120.676 331.386C122.649 334.746 123.636 338.666 123.636 343.146ZM101.316 330.266C98.4894 330.266 96.116 331.066 94.196 332.666C92.276 334.266 91.1027 336.453 90.676 339.226H111.876C111.449 336.506 110.276 334.346 108.356 332.746C106.436 331.093 104.089 330.266 101.316 330.266ZM174.092 321.466V364.506H161.612V331.706H148.012L147.612 339.306C147.398 344.96 146.865 349.653 146.012 353.386C145.158 357.12 143.772 360.053 141.852 362.186C139.932 364.32 137.265 365.386 133.852 365.386C132.038 365.386 129.878 365.066 127.372 364.426L128.012 354.186C128.865 354.293 129.478 354.346 129.852 354.346C131.718 354.346 133.105 353.68 134.012 352.346C134.972 350.96 135.612 349.226 135.932 347.146C136.252 345.013 136.492 342.213 136.652 338.746L137.292 321.466H174.092ZM227.933 343.146C227.933 343.306 227.853 344.426 227.693 346.506H195.133C195.72 349.173 197.106 351.28 199.293 352.826C201.48 354.373 204.2 355.146 207.453 355.146C209.693 355.146 211.666 354.826 213.373 354.186C215.133 353.493 216.76 352.426 218.253 350.986L224.893 358.186C220.84 362.826 214.92 365.146 207.133 365.146C202.28 365.146 197.986 364.213 194.253 362.346C190.52 360.426 187.64 357.786 185.613 354.426C183.586 351.066 182.573 347.253 182.573 342.986C182.573 338.773 183.56 334.986 185.533 331.626C187.56 328.213 190.306 325.573 193.773 323.706C197.293 321.786 201.213 320.826 205.533 320.826C209.746 320.826 213.56 321.733 216.973 323.546C220.386 325.36 223.053 327.973 224.973 331.386C226.946 334.746 227.933 338.666 227.933 343.146ZM205.613 330.266C202.786 330.266 200.413 331.066 198.493 332.666C196.573 334.266 195.4 336.453 194.973 339.226H216.173C215.746 336.506 214.573 334.346 212.653 332.746C210.733 331.093 208.386 330.266 205.613 330.266ZM237.499 321.466H249.899V338.266H268.619V321.466H281.099V364.506H268.619V348.426H249.899V364.506H237.499V321.466ZM315.686 335.226C321.286 335.28 325.526 336.533 328.406 338.986C331.286 341.44 332.726 344.96 332.726 349.546C332.726 354.346 331.099 358.053 327.846 360.666C324.593 363.28 319.979 364.586 314.006 364.586L293.046 364.506V321.466H305.446V335.226H315.686ZM337.366 321.466H349.766V364.506H337.366V321.466ZM312.886 355.706C315.286 355.76 317.126 355.253 318.406 354.186C319.686 353.12 320.326 351.52 320.326 349.386C320.326 347.306 319.686 345.786 318.406 344.826C317.179 343.866 315.339 343.36 312.886 343.306L305.446 343.226V355.706H312.886ZM361.796 321.466H374.196V347.066L395.156 321.466H406.596V364.506H394.196V338.906L373.316 364.506H361.796V321.466ZM383.396 316.826C374.009 316.826 369.289 312.693 369.236 304.426H377.396C377.449 306.293 377.956 307.76 378.916 308.826C379.929 309.84 381.396 310.346 383.316 310.346C385.236 310.346 386.703 309.84 387.716 308.826C388.783 307.76 389.316 306.293 389.316 304.426H397.636C397.583 312.693 392.836 316.826 383.396 316.826ZM463.889 341.946H454.929V364.506H442.049V308.506H454.929V331.146H464.209L478.929 308.506H492.609L474.289 335.546L493.169 364.506H478.449L463.889 341.946ZM524.656 320.826C528.656 320.826 532.283 321.76 535.536 323.626C538.843 325.44 541.429 328.026 543.296 331.386C545.163 334.693 546.096 338.56 546.096 342.986C546.096 347.413 545.163 351.306 543.296 354.666C541.429 357.973 538.843 360.56 535.536 362.426C532.283 364.24 528.656 365.146 524.656 365.146C519.163 365.146 514.843 363.413 511.696 359.946V380.026H499.216V321.466H511.136V326.426C514.229 322.693 518.736 320.826 524.656 320.826ZM522.496 354.906C525.696 354.906 528.309 353.84 530.336 351.706C532.416 349.52 533.456 346.613 533.456 342.986C533.456 339.36 532.416 336.48 530.336 334.346C528.309 332.16 525.696 331.066 522.496 331.066C519.296 331.066 516.656 332.16 514.576 334.346C512.549 336.48 511.536 339.36 511.536 342.986C511.536 346.613 512.549 349.52 514.576 351.706C516.656 353.84 519.296 354.906 522.496 354.906ZM570.86 320.826C577.526 320.826 582.646 322.426 586.22 325.626C589.793 328.773 591.58 333.546 591.58 339.946V364.506H579.9V359.146C577.553 363.146 573.18 365.146 566.78 365.146C563.473 365.146 560.593 364.586 558.14 363.466C555.74 362.346 553.9 360.8 552.62 358.826C551.34 356.853 550.7 354.613 550.7 352.106C550.7 348.106 552.193 344.96 555.18 342.666C558.22 340.373 562.886 339.226 569.18 339.226H579.1C579.1 336.506 578.273 334.426 576.62 332.986C574.966 331.493 572.486 330.746 569.18 330.746C566.886 330.746 564.62 331.12 562.38 331.866C560.193 332.56 558.326 333.52 556.78 334.746L552.3 326.026C554.646 324.373 557.446 323.093 560.7 322.186C564.006 321.28 567.393 320.826 570.86 320.826ZM569.9 356.746C572.033 356.746 573.926 356.266 575.58 355.306C577.233 354.293 578.406 352.826 579.1 350.906V346.506H570.54C565.42 346.506 562.86 348.186 562.86 351.546C562.86 353.146 563.473 354.426 564.7 355.386C565.98 356.293 567.713 356.746 569.9 356.746ZM602.421 321.466H614.821V347.066L635.781 321.466H647.221V364.506H634.821V338.906L613.941 364.506H602.421V321.466ZM624.021 316.826C614.634 316.826 609.914 312.693 609.861 304.426H618.021C618.074 306.293 618.581 307.76 619.541 308.826C620.554 309.84 622.021 310.346 623.941 310.346C625.861 310.346 627.328 309.84 628.341 308.826C629.408 307.76 629.941 306.293 629.941 304.426H638.261C638.208 312.693 633.461 316.826 624.021 316.826Z" fill="#0E5027"/>
<defs>
<filter id="filter0_f_3_71" x="127.118" y="-1.52588e-05" width="219.842" height="219.842" filterUnits="userSpaceOnUse" color-interpolation-filters="sRGB">
<feFlood flood-opacity="0" result="BackgroundImageFix"/>
<feBlend mode="normal" in="SourceGraphic" in2="BackgroundImageFix" result="shape"/>
<feGaussianBlur stdDeviation="38.9" result="effect1_foregroundBlur_3_71"/>
</filter>
</defs>
</svg>
